<svg width="74" height="70" viewBox="0 0 74 70" fill="none" xmlns="http://www.w3.org/2000/svg">
<g clip-path="url(#clip0_960_1140)">
<mask id="mask0_960_1140" style="mask-type:luminance" maskUnits="userSpaceOnUse" x="9" y="20" width="59" height="50">
<path d="M9.95142 20.6646H67.9437V69.3033H9.95142V20.6646Z" fill="white"/>
</mask>
<g mask="url(#mask0_960_1140)">
<mask id="mask1_960_1140" style="mask-type:luminance" maskUnits="userSpaceOnUse" x="10" y="20" width="68" height="60">
<path d="M10.0452 47.5952L61.4717 20.9253L77.9245 52.6496L26.4968 79.3195L10.0452 47.5952Z" fill="white"/>
</mask>
<g mask="url(#mask1_960_1140)">
<mask id="mask2_960_1140" style="mask-type:luminance" maskUnits="userSpaceOnUse" x="-1" y="1" width="79" height="79">
<path d="M-0.165771 27.9051L51.2608 1.23633L77.9307 52.6629L26.5042 79.3328L-0.165771 27.9051Z" fill="white"/>
</mask>
<g mask="url(#mask2_960_1140)">
<path d="M52.0585 65.8821C37.927 73.2103 20.4572 67.6712 13.129 53.5409C5.80082 39.4094 11.3387 21.9396 25.469 14.6114C39.6004 7.28321 57.0702 12.8211 64.3997 26.9526C71.7279 41.0828 66.1888 58.5539 52.0585 65.8821ZM25.6663 14.9902C11.7369 22.2137 6.28433 39.4155 13.5078 53.3448C20.7313 67.2729 37.9331 72.7267 51.8612 65.5033C65.7905 58.2798 71.2431 41.078 64.0197 27.1487C56.7962 13.2193 39.5944 7.76672 25.6663 14.9902Z" fill="#FA8443"/>
</g>
</g>
</g>
<mask id="mask3_960_1140" style="mask-type:luminance" maskUnits="userSpaceOnUse" x="11" y="21" width="55" height="47">
<path d="M11.1987 21.9121H65.7614V67.433H11.1987V21.9121Z" fill="white"/>
</mask>
<g mask="url(#mask3_960_1140)">
<mask id="mask4_960_1140" style="mask-type:luminance" maskUnits="userSpaceOnUse" x="11" y="22" width="64" height="55">
<path d="M11.4739 46.9732L59.5609 22.0352L74.9748 51.756L26.8866 76.694L11.4739 46.9732Z" fill="white"/>
</mask>
<g mask="url(#mask4_960_1140)">
<mask id="mask5_960_1140" style="mask-type:luminance" maskUnits="userSpaceOnUse" x="1" y="3" width="74" height="74">
<path d="M1.86572 28.4464L49.9539 3.5083L74.892 51.5965L26.8038 76.5346L1.86572 28.4464Z" fill="white"/>
</mask>
<g mask="url(#mask5_960_1140)">
<path d="M51.0026 64.1777C37.7066 71.0723 21.2696 65.8621 14.3738 52.5661C7.47912 39.2713 12.6906 22.8343 25.9854 15.9384C39.2814 9.04381 55.7184 14.2541 62.613 27.5501C69.5088 40.8448 64.2974 57.2831 51.0026 64.1777ZM26.1705 16.2953C13.0645 23.0913 7.93462 39.2762 14.7306 52.3822C21.5266 65.4869 37.7115 70.618 50.8175 63.8208C63.9223 57.0249 69.0533 40.84 62.2574 27.7352C55.4602 14.6292 39.2753 9.49931 26.1705 16.2953Z" fill="#51ADE5"/>
</g>
</g>
</g>
<mask id="mask6_960_1140" style="mask-type:luminance" maskUnits="userSpaceOnUse" x="14" y="24" width="50" height="41">
<path d="M14.9402 24.0942H63.5789V64.9663H14.9402V24.0942Z" fill="white"/>
</mask>
<g mask="url(#mask6_960_1140)">
<path d="M31.9569 52.1293C34.2807 51.8236 36.4936 49.7421 36.535 49.7044C36.5301 49.719 36.6081 49.8676 38.698 51.3011C41.2094 53.022 43.4881 50.4522 43.4881 50.4522C46.9068 52.5848 49.2537 51.5763 49.2537 51.5763C47.1747 52.9294 44.2164 52.0343 44.2164 52.0343C39.687 54.5919 36.6251 51.5313 36.6251 51.5313C34.7228 52.441 31.9569 52.1293 31.9569 52.1293ZM15.0266 50.116C16.4735 53.2838 18.5488 56.1009 21.0943 58.4076C28.3993 57.2335 31.2225 53.9001 31.2225 53.9001C31.2225 53.9001 33.3392 57.5904 38.3424 57.5551C43.3456 57.5198 44.449 53.9001 44.449 53.9001C44.449 53.9001 46.2321 56.2385 50.8516 57.3748C53.8185 58.1044 57.2981 56.2556 58.3138 54.8476L58.315 54.8452C56.5393 54.408 55.2934 53.944 55.2934 53.944C51.7322 56.0899 47.9859 54.5286 47.9859 54.5286C51.7431 55.2057 54.8659 50.5058 54.8659 50.5058C54.8659 50.5058 56.2226 52.2389 59.2333 53.5445C61.8786 49.5302 63.4193 44.7195 63.4193 39.5482C63.4193 33.8386 61.5413 28.5687 58.371 24.3242C57.9375 24.6324 57.4345 25.044 56.7999 25.7309C51.6116 31.3431 44.1994 36.8761 38.413 40.503C30.5002 45.4636 22.1977 48.6801 15.0266 50.116ZM21.6375 58.885C26.0622 62.674 31.8034 64.9624 38.0793 64.9624C43.5721 64.9624 48.6569 63.2086 52.8088 60.2296C48.3817 60.3368 45.2882 57.8108 45.2882 57.8108C38.3546 62.7982 31.2225 57.5904 31.2225 57.5904C26.2875 58.9715 23.2695 59.0482 21.6375 58.885Z" fill="#42A7C3"/>
</g>
<path d="M38.413 40.5035C44.1994 36.8766 51.6116 31.3436 56.7999 25.7314C57.4345 25.0445 57.9375 24.6328 58.371 24.3247C58.4916 24.4879 58.611 24.6511 58.7279 24.8167C55.6454 29.5776 49.6776 37.7206 41.2289 44.4155C33.7362 50.3516 26.0195 54.6094 19.4574 56.7846C17.6512 54.8226 16.1495 52.5755 15.0266 50.1165C22.1977 48.6806 30.5002 45.4641 38.413 40.5035Z" fill="#3871C1"/>
<path d="M55.8645 21.4464C53.1643 24.4023 48.1368 29.3068 41.0729 33.706C35.0539 37.4535 28.7719 40.273 23.2986 41.7759C22.144 42.0913 21.0247 42.3495 19.953 42.5456C18.3356 42.8416 16.8229 42.9962 15.4491 42.9962C14.5162 42.9962 13.6771 42.9244 12.9426 42.7855C12.8075 41.7259 12.738 40.6456 12.738 39.5483C12.738 30.3141 17.6499 22.2295 24.9952 17.7805C27.2556 16.4103 29.7487 15.3848 32.3989 14.7759C32.4135 14.7722 32.4257 14.7686 32.4403 14.7661C33.1296 14.609 33.8299 14.4799 34.5387 14.3813C34.6374 14.3667 34.736 14.3545 34.8347 14.3411C35.5362 14.251 36.245 14.1901 36.9636 14.1596C37.0099 14.1572 37.0562 14.1547 37.1025 14.1535C37.4264 14.1413 37.7516 14.1353 38.0792 14.1353C39.3666 14.1353 40.632 14.2303 41.8682 14.4178C47.2842 15.2314 52.1401 17.7659 55.8645 21.4464Z" fill="#FA8443"/>
<path d="M69.4407 10.8826C71.4077 7.85848 72.4709 5.17298 71.8364 4.7394C71.203 4.30582 69.0973 6.27763 67.0073 9.2189L58.9776 9.27979L57.6915 11.17L63.9869 13.9335C63.177 15.2744 62.3378 16.7091 61.6034 18.0317L57.4991 17.8162L56.8828 18.7211L60.394 20.2995C60.3319 20.4237 54.0024 28.8675 42.5077 36.024C26.961 45.7052 11.3096 48.6331 7.54498 42.5545C4.93499 38.3429 8.71906 30.9136 16.4614 23.5245C4.07514 33.1485 -2.75615 43.9454 0.71978 49.5551C4.86191 56.2427 22.1137 53.0724 39.1877 42.3694C52.9952 33.7149 61.5267 21.1423 61.5645 21.0997L63.043 23.158L63.6593 22.253L63.2294 19.1449C64.1891 17.9757 65.2158 16.6689 66.1645 15.423L67.5664 19.7173L68.8525 17.8271L69.4407 10.8826Z" fill="#2C3892"/>
<mask id="mask7_960_1140" style="mask-type:luminance" maskUnits="userSpaceOnUse" x="8" y="-1" width="36" height="44">
<path d="M8.70435 -0.112793H43.9362V42.8017H8.70435V-0.112793Z" fill="white"/>
</mask>
<g mask="url(#mask7_960_1140)">
<path d="M37.7699 14.701C38.5786 15.4001 39.5615 15.8592 40.6101 16.0626C41.7208 16.277 42.7585 16.6143 43.9009 17.1587C43.9009 17.1587 43.2079 15.8458 41.8682 14.4184C39.8684 12.2858 36.4229 9.89751 31.684 11.2409C31.7522 11.197 31.8228 11.152 31.8935 11.1081C31.5524 10.9717 31.1554 10.8609 30.7072 10.8109C30.7072 10.8109 30.9435 10.7391 31.332 10.7354C32.0664 10.7269 32.7886 10.5467 33.4305 10.191L33.4524 10.1788C33.0651 10.001 32.8532 9.70508 32.3063 9.64296C32.3063 9.64296 32.6218 9.54918 33.1223 9.57232C33.9542 9.61008 34.7836 9.4554 35.5326 9.09368C35.5752 9.07298 35.6166 9.05227 35.6593 9.03279C35.2391 8.81478 34.702 8.61869 34.0601 8.54684C34.0601 8.54684 34.5034 8.39947 35.1221 8.4019C36.3522 8.40799 37.5689 8.15467 38.7101 7.69429C38.7588 7.67481 38.8039 7.65654 38.8453 7.63949C37.8442 7.33988 36.5008 7.03662 35.8517 6.96476C35.8517 6.96476 39.0487 6.62984 41.409 6.86611C41.409 6.86611 33.4414 1.35382 28.9437 11.4065C29.6902 8.89638 29.9095 4.52649 25.9342 1.8081C24.0683 0.532945 21.5083 -0.11377 21.5083 -0.11377C22.2159 0.584097 25.6991 4.71283 26.0085 5.34372C25.9829 5.32423 25.1255 4.68848 24.1195 4.26464C24.1353 4.31214 24.1512 4.35964 24.1658 4.40836C24.4386 5.28282 26.0852 7.29725 26.274 7.68212C26.274 7.68212 25.581 7.1645 24.7053 6.74676C24.9099 8.01461 25.497 9.3738 25.5493 10.5186C21.5387 2.69353 12.7782 5.12449 12.7782 5.12449C15.6598 5.43262 19.3988 6.62984 19.3988 6.62984C18.6048 6.55432 16.9228 6.58112 15.6513 6.68951C15.6939 6.71874 15.739 6.74797 15.7865 6.77964C17.0446 7.61878 18.4452 8.22896 19.925 8.53344C20.6606 8.68568 21.1478 8.96945 21.1478 8.96945C20.3622 8.89516 19.6717 8.99625 19.1151 9.15092L19.1821 9.20086C20.0224 9.84148 21.0101 10.2568 22.0515 10.4346C22.6336 10.5345 22.9722 10.7184 22.9722 10.7184C22.3036 10.6551 21.9772 10.9559 21.4693 11.0728C21.4924 11.0923 21.5144 11.1106 21.5363 11.13C21.719 11.2871 21.9102 11.4296 22.1124 11.5587C11.6334 8.16076 8.90527 15.7691 8.90527 15.7691C11.2595 14.1261 14.8207 12.5891 14.8901 12.5599C14.241 13.0239 12.9877 14.1493 12.0974 15.0663C12.106 15.0651 12.1145 15.0639 12.123 15.0627C13.7039 14.852 15.2275 14.3417 16.639 13.5951C17.2456 13.2736 17.7413 13.1798 17.7413 13.1798C17.0982 13.6389 16.6427 14.1687 16.3236 14.651C16.337 14.6498 16.3504 14.6486 16.365 14.6486C17.4368 14.5804 18.4708 14.243 19.3915 13.6877C19.875 13.3954 20.2392 13.3089 20.2611 13.304C19.7155 13.695 19.6643 14.1383 19.3574 14.5573H19.3781C20.266 14.5536 21.1417 14.3344 21.9187 13.9032C22.3377 13.6694 22.6409 13.5988 22.6592 13.5951C22.2122 13.9154 21.8542 14.2698 21.5704 14.6194C21.9894 14.6413 22.3876 14.6681 22.7664 14.6985C16.9874 16.1247 17.0215 22.8452 17.0215 22.8452C17.3625 22.1266 17.8034 21.5043 18.3088 20.9623C18.5585 19.6433 19.0871 18.6117 19.0871 18.6117C18.9701 19.273 19.2198 20.7966 19.2247 20.793C20.0565 20.061 20.4109 18.7335 20.8409 17.7117C20.9517 17.4474 21.0296 17.2951 21.0296 17.2951C20.9164 17.9394 20.8628 18.5155 20.8494 19.0258C20.8555 19.0221 20.8628 19.0185 20.8689 19.0148C21.9638 18.4022 22.8382 17.4571 23.34 16.3062C23.4241 16.1125 23.3035 17.3329 23.2986 17.8773C24.782 16.5059 25.6979 16.892 25.6979 16.892C25.4775 17.1539 25.2412 17.4498 24.9952 17.7811C22.3145 21.3837 18.4135 29.1284 19.953 42.5462C21.0248 42.3501 22.144 42.0919 23.2986 41.7765C22.0417 36.5224 20.5449 25.7158 26.6662 17.691C26.6674 17.7506 26.8915 17.3305 27.0876 17.1173C27.1241 17.1478 26.6917 18.9661 26.6649 19.7249V19.7419C27.0254 19.4935 27.3981 19.4618 27.7416 19.0112C27.7367 19.0294 27.6551 19.3339 27.3969 19.7358C26.9061 20.4995 26.5967 21.3654 26.5115 22.2703C26.5103 22.2813 26.5103 22.2922 26.509 22.3032C26.9207 22.0462 27.3786 21.6748 27.7805 21.1437C27.7757 21.1693 27.6807 21.5761 27.403 22.0657C26.7392 23.2373 26.2728 24.5113 26.0548 25.8413C26.0535 25.8486 26.0523 25.8559 26.0523 25.862C26.8452 25.1349 27.822 24.1045 28.2287 23.5674C28.2007 23.6283 26.8184 26.5951 25.3788 28.5426C25.3788 28.5426 31.8216 25.6915 29.7012 17.5412C30.0081 18.7652 30.723 19.8467 31.729 20.6054C31.7363 20.6115 31.7449 20.6176 31.7522 20.6237C31.8642 20.1743 31.9068 18.9929 31.9276 18.4339C31.9276 18.4339 33.2246 20.0038 33.7496 22.2447L33.7642 22.2581C33.8689 21.8258 34.0053 20.6651 34.0248 20.1341C34.0248 20.1341 34.9833 22.0876 36.5569 26.3187C36.5569 26.3187 38.4946 19.0392 32.9177 15.0858C33.6582 15.4707 34.484 15.668 35.3231 15.6619H35.3462C35.222 15.372 34.5436 14.5987 34.4413 14.4537C34.4413 14.4537 36.9015 15.6631 37.9075 15.735L37.9355 15.7362C37.7833 15.3915 37.0781 14.2991 37.0318 14.2321C37.0318 14.2321 37.519 14.4842 37.7699 14.701Z" fill="#24265D"/>
</g>
<mask id="mask8_960_1140" style="mask-type:luminance" maskUnits="userSpaceOnUse" x="53" y="-6" width="31" height="31">
<path d="M53.6895 -5.61035H83.8122V24.5124H53.6895V-5.61035Z" fill="white"/>
</mask>
<g mask="url(#mask8_960_1140)">
<mask id="mask9_960_1140" style="mask-type:luminance" maskUnits="userSpaceOnUse" x="53" y="-6" width="31" height="31">
<path d="M68.7514 -5.61035C60.4331 -5.61035 53.6895 1.13325 53.6895 9.45162C53.6895 17.7688 60.4331 24.5124 68.7514 24.5124C77.0686 24.5124 83.8122 17.7688 83.8122 9.45162C83.8122 1.13325 77.0686 -5.61035 68.7514 -5.61035Z" fill="white"/>
</mask>
<g mask="url(#mask9_960_1140)">
<path d="M53.6895 -5.61035H83.8122V24.5124H53.6895V-5.61035Z" fill="white"/>
</g>
</g>
<mask id="mask10_960_1140" style="mask-type:luminance" maskUnits="userSpaceOnUse" x="50" y="11" width="10" height="14">
<path d="M50.4839 11.9346H59.5257V24.406H50.4839V11.9346Z" fill="white"/>
</mask>
<g mask="url(#mask10_960_1140)">
<mask id="mask11_960_1140" style="mask-type:luminance" maskUnits="userSpaceOnUse" x="46" y="-1" width="38" height="36">
<path d="M46.2493 18.022L71.7305 -0.0214844L83.252 16.2499L57.7708 34.2933L46.2493 18.022Z" fill="white"/>
</mask>
<g mask="url(#mask11_960_1140)">
<mask id="mask12_960_1140" style="mask-type:luminance" maskUnits="userSpaceOnUse" x="46" y="-1" width="38" height="36">
<path d="M46.2493 18.022L71.7305 -0.0214844L83.252 16.2499L57.7708 34.2933L46.2493 18.022Z" fill="white"/>
</mask>
<g mask="url(#mask12_960_1140)">
<path d="M50.5754 24.1126L59.4407 12.2172L58.8207 12.1636L50.5754 24.1126Z" fill="#2C3892"/>
</g>
</g>
</g>
<mask id="mask13_960_1140" style="mask-type:luminance" maskUnits="userSpaceOnUse" x="58" y="12" width="6" height="7">
<path d="M58.9021 12.2466H63.5789V18.4823H58.9021V12.2466Z" fill="white"/>
</mask>
<g mask="url(#mask13_960_1140)">
<mask id="mask14_960_1140" style="mask-type:luminance" maskUnits="userSpaceOnUse" x="46" y="-1" width="38" height="36">
<path d="M46.2493 18.022L71.7305 -0.0214844L83.252 16.2499L57.7708 34.2933L46.2493 18.022Z" fill="white"/>
</mask>
<g mask="url(#mask14_960_1140)">
<mask id="mask15_960_1140" style="mask-type:luminance" maskUnits="userSpaceOnUse" x="46" y="-1" width="38" height="36">
<path d="M46.2493 18.022L71.7305 -0.0214844L83.252 16.2499L57.7708 34.2933L46.2493 18.022Z" fill="white"/>
</mask>
<g mask="url(#mask15_960_1140)">
<path d="M62.8325 12.5059L58.9814 18.2922L63.4086 12.5546L62.8325 12.5059Z" fill="#2C3892"/>
</g>
</g>
</g>
<mask id="mask16_960_1140" style="mask-type:luminance" maskUnits="userSpaceOnUse" x="56" y="2" width="18" height="22">
<path d="M56.0959 2.58105H73.8678V23.7825H56.0959V2.58105Z" fill="white"/>
</mask>
<g mask="url(#mask16_960_1140)">
<mask id="mask17_960_1140" style="mask-type:luminance" maskUnits="userSpaceOnUse" x="46" y="-1" width="38" height="36">
<path d="M46.249 18.022L71.7303 -0.0214844L83.2518 16.2499L57.7705 34.2933L46.249 18.022Z" fill="white"/>
</mask>
<g mask="url(#mask17_960_1140)">
<mask id="mask18_960_1140" style="mask-type:luminance" maskUnits="userSpaceOnUse" x="46" y="-1" width="38" height="36">
<path d="M46.249 18.022L71.7303 -0.0214844L83.2518 16.2499L57.7705 34.2933L46.249 18.022Z" fill="white"/>
</mask>
<g mask="url(#mask18_960_1140)">
<path d="M73.6375 2.89282C72.9482 2.39834 70.4003 4.77085 67.9462 8.18954C67.7745 8.42947 67.5808 8.71324 67.3665 9.03477L57.6061 9.98109L56.1628 11.6131L65.2558 12.3877C63.6896 14.9575 61.8895 18.034 60.5084 20.4186L57.7888 19.493L56.9545 19.9753L59.6485 21.9082C58.8873 23.2308 59.1102 23.3075 60.1466 22.1846L62.2658 23.7314L62.4631 22.9239L61.2318 20.957C63.0429 18.8926 65.3727 16.2095 67.3043 13.9052L70.9764 22.2394L72.1724 20.1336L69.9253 10.6765C70.1214 10.4208 70.2955 10.1869 70.4429 9.98109C72.897 6.56118 74.3269 3.38729 73.6375 2.89282Z" fill="#2C3892"/>
</g>
</g>
</g>
<mask id="mask19_960_1140" style="mask-type:luminance" maskUnits="userSpaceOnUse" x="59" y="18" width="11" height="15">
<path d="M59.8374 18.7939H69.5028V32.8243H59.8374V18.7939Z" fill="white"/>
</mask>
<g mask="url(#mask19_960_1140)">
<mask id="mask20_960_1140" style="mask-type:luminance" maskUnits="userSpaceOnUse" x="46" y="-1" width="38" height="36">
<path d="M46.249 18.022L71.7303 -0.0214844L83.2518 16.2499L57.7705 34.2933L46.249 18.022Z" fill="white"/>
</mask>
<g mask="url(#mask20_960_1140)">
<mask id="mask21_960_1140" style="mask-type:luminance" maskUnits="userSpaceOnUse" x="46" y="-1" width="38" height="36">
<path d="M46.249 18.022L71.7303 -0.0214844L83.2518 16.2499L57.7705 34.2933L46.249 18.022Z" fill="white"/>
</mask>
<g mask="url(#mask21_960_1140)">
<path d="M69.4382 19.6419L69.1593 19.0098L59.8386 32.6212L69.4382 19.6419Z" fill="#2C3892"/>
</g>
</g>
</g>
<mask id="mask22_960_1140" style="mask-type:luminance" maskUnits="userSpaceOnUse" x="62" y="14" width="6" height="8">
<path d="M62.6436 14.7407H67.9439V21.9118H62.6436V14.7407Z" fill="white"/>
</mask>
<g mask="url(#mask22_960_1140)">
<mask id="mask23_960_1140" style="mask-type:luminance" maskUnits="userSpaceOnUse" x="46" y="-1" width="38" height="36">
<path d="M46.2493 18.022L71.7305 -0.0214844L83.252 16.2499L57.7708 34.2933L46.2493 18.022Z" fill="white"/>
</mask>
<g mask="url(#mask23_960_1140)">
<mask id="mask24_960_1140" style="mask-type:luminance" maskUnits="userSpaceOnUse" x="46" y="-1" width="38" height="36">
<path d="M46.2493 18.022L71.7305 -0.0214844L83.252 16.2499L57.7708 34.2933L46.2493 18.022Z" fill="white"/>
</mask>
<g mask="url(#mask24_960_1140)">
<path d="M67.3741 14.9565L62.9336 21.6807L67.6335 15.5448L67.3741 14.9565Z" fill="#2C3892"/>
</g>
</g>
</g>
</g>
<defs>
<clipPath id="clip0_960_1140">
<rect width="74" height="69.56" fill="white"/>
</clipPath>
</defs>
</svg>
